<?xml version="1.0" encoding="utf-8"?>
<!-- Generator: Adobe Illustrator 28.0.0, SVG Export Plug-In . SVG Version: 6.00 Build 0)  -->
<svg version="1.1" id="Layer_1" xmlns="http://www.w3.org/2000/svg" xmlns:xlink="http://www.w3.org/1999/xlink" x="0px" y="0px"
	 viewBox="0 0 17.7 16" style="enable-background:new 0 0 17.7 16;" xml:space="preserve">
<style type="text/css">
	.st0{fill:#595A5C;}
</style>
<path class="st0" d="M13,7.6c0.9-0.6,1.4-1.5,1.4-2.8V4.4c0-2.6-1.2-4-3.7-4H3.5v15.2h7c2.8,0,4.2-1.3,4.2-4V11
	C14.7,9.3,14.2,8.1,13,7.6z M6.6,3.3h3.7c0.5,0,1,0.4,1,0.9v1.2c0,0.5-0.4,0.9-1,0.9H6.6V3.3z M11.6,11.8c0,0.6-0.5,1-1.1,1H6.6V9.1
	h3.9c0.6,0,1.1,0.5,1.1,1V11.8z"/>
</svg>
