<?xml version="1.0" encoding="UTF-8"?>
<svg xmlns="http://www.w3.org/2000/svg" id="Layer_1" width="152.9" height="40.4" version="1.1" viewBox="0 0 152.9 40.4">
  <defs>
    <style>
      .st0 {
        fill: #fff;
      }
    </style>
  </defs>
  <path id="A" class="st0" d="M54.6,12.9v16.9h-16.7c-2.1,0-3.8-1.7-3.8-3.8v-6c0-2.1,1.7-3.8,3.8-3.8h10.7s0-2.3,0-2.3c0-.8-.7-1.5-1.5-1.5h-9v-4.9h11.2c2.9,0,5.3,2.4,5.3,5.3ZM48.6,20.7h-8.4c-.5,0-.9.4-.9.9v2.4c0,.5.4.9.9.9h8.4v-4.3Z"></path>
  <path id="N" class="st0" d="M130.1,29.8V7.6h15.5c2.9,0,5.3,2.4,5.3,5.3v16.9h-5.9v-15.8c0-.8-.7-1.5-1.5-1.5h-7.4s0,17.3,0,17.3h-5.9Z"></path>
  <path id="O" class="st0" d="M113,7.6h6.1c6.5,0,8,6.5,8,10.9s-1.4,11.3-8,11.3h-6.1c-6.5,0-8-7-8-11.3s1.4-10.9,8-10.9ZM118.6,12.5h-5c-2.4,0-2.7,3.8-2.7,6.1s.2,6.4,2.7,6.4h5c2.4,0,2.7-4.2,2.7-6.4s-.3-6.1-2.7-6.1Z"></path>
  <path id="R" class="st0" d="M25.2,29.8V12.9c0-2.9,2.4-5.3,5.3-5.3h5.3s0,4.9,0,4.9h-3.8c-.5,0-.9.4-.9.9v16.5h-5.9Z"></path>
  <path id="T" class="st0" d="M86.9,2.3v5.3h4.3v4.9h-4.3v11.6c0,.5.4.9.9.9h3.4v4.9h-4.9c-2.9,0-5.3-2.4-5.3-5.3V2.3h5.9Z"></path>
  <path id="Y" class="st0" d="M78,7.6v25.2c0,2.9-2.4,5.3-5.3,5.3h-13.5v-4.9h11.3c.8,0,1.5-.7,1.5-1.5v-1.9h-9.2c-2.9,0-5.3-2.4-5.3-5.3V7.6s5.9,0,5.9,0v15.8c0,.8.7,1.5,1.5,1.5h7s0-17.3,0-17.3h5.9Z"></path>
  <path id="R1" data-name="R" class="st0" d="M94.2,29.8V12.9c0-2.9,2.4-5.3,5.3-5.3h6.3c.3,0,.4.3.3.5l-2,4.4h-3.1c-.5,0-.9.4-.9.9v16.5h-5.9Z"></path>
  <path id="B" class="st0" d="M2.1,2.3v27.5h15.1c2.9,0,5.3-2.4,5.3-5.3v-4.6c0-1.1-.5-2.2-1.5-2.8l-1.5-1.1,1.2-1.1c.8-.7,1.2-1.6,1.2-2.6v-4.8c0-2.9-2.4-5.3-5.3-5.3H2.1ZM15.1,25h-7v-6.5h7c.8,0,1.5.7,1.5,1.5v3.5c0,.8-.7,1.5-1.5,1.5ZM14.5,13.6h-6.5v-6.5h6.5c.8,0,1.5.7,1.5,1.5v3.5c0,.8-.7,1.5-1.5,1.5Z"></path>
</svg>
